<svg xmlns="http://www.w3.org/2000/svg" width="675.000000pt" height="675.000000pt" viewBox="0 0 675.000000 675.000000" preserveAspectRatio="xMidYMid meet"><g transform="translate(0.000000,675.000000) scale(0.100000,-0.100000)" fill="#000000" stroke="none"><path d="M3215 6569 c-226 -12 -530 -78 -785 -171 -246 -89 -485 -209 -663 -331 -37 -26 -70 -47 -73 -47 -4 0 -23 -14 -43 -30 -20 -17 -74 -61 -121 -97 -120 -95 -287 -254 -400 -383 -61 -69 -270 -344 -270 -355 0 -2 -17 -31 -37 -62 -55 -85 -69 -110 -110 -193 -20 -41 -39 -77 -43 -80 -4 -3 -23 -43 -43 -90 -115 -270 -173 -460 -217 -705 -12 -66 -27 -145 -33 -175 -20 -91 -16 -688 5 -830 28 -187 58 -333 76 -367 7 -12 12 -32 12 -45 0 -35 78 -257 149 -423 34 -79 154 -315 183 -359 112 -168 151 -223 212 -301 138 -178 328 -376 465 -487 216 -172 331 -250 536 -360 203 -109 351 -171 570 -236 353 -105 428 -115 879 -119 216 -2 377 1 420 7 39 6 103 15 141 20 114 15 386 87 525 139 47 18 96 36 110 40 35 11 230 101 257 118 11 8 61 35 110 61 214 113 513 339 684 517 148 155 176 187 259 295 127 164 123 158 170 235 99 162 240 429 240 456 0 6 7 23 15 37 30 56 73 179 135 392 30 102 69 324 81 455 7 75 9 237 6 435 -5 280 -8 331 -32 459 -31 173 -65 311 -106 429 -17 48 -34 102 -39 120 -4 18 -12 38 -17 45 -6 7 -25 48 -42 91 -55 133 -192 397 -227 437 -8 8 -14 19 -14 23 0 6 -38 64 -50 76 -3 3 -18 24 -33 48 -42 65 -192 250 -256 315 -152 156 -257 254 -320 300 -16 12 -66 50 -111 85 -44 34 -85 62 -90 62 -6 0 -10 4 -10 9 0 18 -371 232 -460 265 -8 3 -22 10 -30 15 -52 32 -323 128 -500 176 -292 81 -625 107 -1065 84z m402 -225 c48 -51 42 -78 -16 -82 -30 -2 -49 2 -62 14 -12 10 -27 14 -42 10 -21 -5 -25 -14 -31 -62 -7 -63 3 -84 39 -84 12 0 30 9 40 20 20 22 55 26 86 10 52 -28 -10 -118 -84 -122 -79 -4 -107 1 -147 28 -45 30 -54 52 -55 139 0 111 56 165 174 165 60 0 65 -2 98 -36z m-353 -7 c13 -37 -2 -50 -67 -57 -40 -4 -53 -9 -55 -24 -4 -17 1 -18 50 -12 46 6 57 4 72 -13 25 -28 13 -61 -22 -61 -62 0 -102 -12 -102 -31 0 -26 10 -29 80 -19 72 10 90 3 90 -37 0 -35 -51 -53 -168 -60 -77 -4 -100 -3 -108 8 -6 8 -16 75 -22 149 -12 133 -12 135 9 153 15 12 40 17 83 18 33 1 72 5 86 9 42 14 64 7 74 -23z m631 17 c101 -8 115 -15 115 -58 0 -37 -12 -46 -60 -46 -40 0 -47 -15 -55 -107 -9 -98 -30 -128 -83 -117 -39 8 -40 12 -28 151 l7 82 -28 7 c-32 8 -63 32 -63 48 0 6 7 22 16 35 14 20 22 22 58 17 22 -3 77 -9 121 -12z m275 -85 c3 -13 -2 -60 -12 -104 -10 -44 -21 -100 -24 -125 -4 -25 -12 -48 -18 -52 -21 -15 -73 -8 -90 11 -17 19 -17 24 4 108 11 48 26 110 33 137 12 53 33 68 76 56 16 -4 28 -16 31 -31z m-1264 15 c37 -18 50 -48 40 -89 -3 -14 -9 -36 -12 -50 -5 -21 1 -33 30 -62 38 -38 47 -77 20 -87 -9 -3 -32 -6 -51 -6 -29 0 -44 8 -75 41 -28 29 -43 38 -50 31 -8 -8 -7 -20 1 -41 17 -40 1 -68 -43 -76 -46 -9 -76 8 -76 43 0 29 -32 184 -45 214 -13 33 12 55 82 71 134 32 135 32 179 11z m1560 -75 c44 -27 84 -85 84 -123 0 -48 -49 -144 -85 -166 -75 -47 -220 -7 -252 68 -20 48 -12 130 18 178 45 73 155 93 235 43z m-1904 -36 c30 -28 34 -55 18 -99 -10 -25 -7 -31 41 -75 44 -40 49 -50 40 -67 -22 -41 -95 -45 -131 -7 -41 44 -77 26 -50 -25 15 -27 3 -47 -38 -63 -55 -22 -64 -11 -119 143 -41 116 -42 117 -26 139 8 12 18 21 23 21 5 0 21 5 37 12 137 57 165 60 205 21z m2154 -62 c29 -17 33 -26 39 -83 11 -93 18 -99 50 -44 28 48 54 58 96 36 27 -15 24 -46 -11 -110 -16 -30 -29 -61 -30 -68 0 -19 -73 -122 -85 -122 -5 0 -24 9 -41 19 -25 15 -34 30 -44 73 -18 81 -21 88 -31 88 -5 0 -16 -18 -25 -40 -19 -46 -45 -58 -80 -35 -32 20 -41 43 -25 64 6 9 14 24 18 34 14 42 81 174 97 190 22 22 34 21 72 -2z m-2476 -126 c58 -55 76 -137 46 -209 -16 -38 -103 -94 -158 -102 -44 -7 -94 21 -135 75 -29 38 -33 50 -33 104 1 54 5 67 30 96 42 50 94 71 163 68 47 -3 62 -8 87 -32z m1500 -54 c47 -5 114 -13 150 -16 36 -4 81 -14 100 -22 30 -14 32 -17 15 -23 -16 -5 -13 -8 14 -13 19 -4 39 -3 46 3 19 16 222 -22 239 -45 8 -12 19 -16 31 -11 12 4 26 0 39 -13 12 -10 30 -21 41 -23 11 -2 20 -8 20 -15 0 -21 14 -26 71 -28 40 -2 63 -8 82 -24 25 -20 104 -61 144 -74 9 -3 29 -28 45 -56 28 -51 51 -62 45 -23 -4 28 1 27 41 0 18 -13 34 -24 36 -25 2 -1 -2 -9 -9 -18 -10 -12 -8 -16 15 -25 14 -5 34 -10 43 -10 25 -1 58 -32 69 -65 9 -29 41 -44 35 -17 -1 6 4 12 10 12 17 -1 148 -122 148 -138 0 -6 11 -14 25 -18 14 -3 25 -10 25 -15 0 -5 23 -32 50 -60 28 -28 50 -55 50 -60 0 -10 76 -94 138 -152 17 -16 32 -38 32 -47 0 -9 14 -30 30 -46 35 -34 62 -89 58 -120 -4 -27 21 -74 39 -74 7 0 18 -12 23 -26 6 -15 22 -35 35 -46 14 -11 25 -26 25 -33 0 -8 6 -18 14 -22 8 -4 18 -20 21 -35 6 -22 4 -28 -9 -28 -19 0 -19 -2 -5 -34 6 -13 19 -26 29 -29 21 -5 58 -109 41 -115 -14 -5 -15 -52 -1 -52 6 0 10 7 10 15 0 8 5 15 10 15 6 0 10 -6 10 -12 0 -7 7 -26 15 -41 24 -47 58 -182 72 -291 4 -32 3 -38 -10 -33 -19 7 -33 -23 -15 -35 7 -4 16 -8 19 -8 6 0 19 -61 23 -110 1 -14 6 -44 10 -68 5 -29 4 -47 -4 -57 -16 -20 -6 -96 14 -111 10 -7 16 -26 16 -50 0 -21 -1 -52 -1 -69 0 -30 -2 -75 -16 -277 -8 -100 -10 -108 -42 -148 -30 -37 -32 -44 -21 -65 15 -29 7 -91 -22 -166 -11 -30 -24 -67 -29 -84 -14 -54 -49 -148 -58 -159 -5 -6 -16 -34 -24 -62 -19 -63 -50 -126 -73 -145 -9 -8 -30 -43 -46 -78 -16 -35 -44 -82 -63 -103 -19 -21 -35 -43 -35 -50 0 -6 -17 -40 -37 -74 -32 -54 -41 -62 -60 -57 -20 4 -23 1 -23 -23 0 -20 -16 -48 -52 -91 -56 -65 -83 -82 -101 -64 -8 8 -16 6 -29 -6 -24 -22 -23 -41 5 -45 21 -4 21 -5 -5 -18 -16 -7 -28 -21 -28 -30 0 -24 -25 -42 -52 -38 -15 2 -30 -5 -41 -20 -10 -12 -22 -20 -27 -17 -5 3 -11 1 -14 -4 -4 -5 -2 -12 4 -16 27 -17 -16 -65 -59 -65 -25 0 -30 -4 -33 -27 -2 -17 -8 -27 -16 -25 -14 3 -72 -28 -72 -39 0 -13 -227 -157 -305 -193 -33 -16 -67 -34 -75 -41 -8 -7 -30 -15 -48 -19 -19 -3 -63 -20 -99 -37 -36 -17 -84 -34 -106 -37 -22 -3 -59 -16 -81 -28 -28 -17 -57 -24 -93 -24 -28 0 -54 -4 -57 -9 -3 -4 -28 -11 -55 -15 -27 -3 -63 -13 -80 -22 -21 -11 -59 -15 -123 -15 -51 0 -119 -4 -151 -10 -43 -7 -62 -7 -73 2 -10 8 -42 8 -132 -1 -90 -10 -134 -10 -184 -1 -35 6 -87 11 -115 11 -28 0 -64 7 -79 15 -16 8 -46 15 -66 15 -20 0 -43 7 -52 15 -8 8 -26 15 -40 15 -37 0 -167 28 -201 44 -74 34 -107 46 -127 46 -11 0 -35 8 -52 19 -17 10 -49 24 -71 31 -22 7 -56 23 -75 35 -19 12 -45 25 -58 29 -13 4 -27 19 -32 32 -6 14 -18 24 -30 24 -11 0 -29 9 -41 21 -11 11 -40 26 -64 33 -23 8 -58 25 -76 39 -19 13 -50 32 -69 42 -40 20 -80 64 -73 81 5 12 -24 27 -37 19 -4 -3 -14 2 -21 11 -10 13 -10 17 0 24 20 11 4 30 -25 30 -14 0 -35 11 -48 25 -13 14 -28 25 -34 25 -16 0 -103 90 -100 105 2 8 0 14 -5 14 -31 2 -66 34 -74 68 -6 27 -15 39 -30 41 -19 3 -83 71 -83 88 0 4 -18 29 -40 55 -22 26 -40 52 -40 57 0 5 -13 26 -30 47 -22 27 -30 49 -30 76 0 30 -6 42 -25 55 -35 23 -85 103 -85 137 0 20 -6 30 -20 34 -12 3 -25 22 -36 57 -9 28 -22 60 -28 71 -7 11 -18 43 -26 70 -7 28 -16 55 -19 60 -24 36 -33 93 -26 161 5 51 3 74 -4 74 -6 0 -11 -4 -11 -10 0 -5 -5 -10 -10 -10 -6 0 -8 10 -5 23 4 13 -3 48 -14 78 -27 73 -36 145 -22 163 13 15 4 69 -9 61 -4 -2 -10 16 -14 42 -9 69 -7 371 3 377 5 3 9 26 9 51 2 98 50 344 63 323 5 -7 10 -1 14 18 3 16 10 37 16 46 12 23 11 28 -4 28 -7 0 -18 -12 -24 -27 l-11 -28 -1 28 c-1 15 4 27 9 27 6 0 10 6 10 14 0 7 7 19 15 26 8 7 15 21 15 31 0 9 7 24 15 32 9 10 12 27 9 48 -8 56 8 92 44 101 35 9 41 28 17 52 -13 13 -11 18 17 47 26 26 33 41 34 80 3 62 17 87 51 91 25 3 28 6 25 39 -2 23 3 41 13 49 8 7 15 20 15 29 0 9 4 21 9 26 5 6 25 39 44 75 18 36 43 69 54 74 11 5 25 22 30 37 9 22 17 28 38 26 25 -2 31 5 61 63 40 79 64 109 85 110 18 0 52 34 44 42 -12 12 19 58 39 58 29 0 40 10 55 47 8 20 24 35 41 42 15 5 31 19 35 31 6 20 8 20 24 6 21 -19 31 -12 31 21 0 20 5 23 35 23 24 0 37 6 45 20 6 11 7 20 3 21 -4 0 11 9 34 19 30 13 48 30 60 55 13 28 22 35 45 35 17 0 28 5 28 13 0 8 12 19 27 26 15 7 33 21 41 32 12 17 21 19 53 14 35 -6 39 -5 39 15 0 16 13 27 53 45 76 35 106 40 113 21 5 -14 8 -14 29 0 13 9 22 21 19 28 -3 8 3 16 13 19 10 4 25 10 33 15 51 30 80 38 130 36 31 -1 61 3 69 9 8 7 26 13 40 14 55 4 101 16 101 24 0 5 23 9 51 9 41 0 50 3 45 15 -7 18 11 22 129 29 50 3 110 10 135 15 53 11 308 6 430 -8z m1403 -72 c20 -17 37 -38 37 -47 0 -21 -29 -142 -40 -167 -5 -11 -12 -36 -16 -55 -17 -91 -92 -92 -110 -1 -5 22 -17 40 -38 52 -30 19 -41 19 -78 4 -11 -4 -27 4 -50 24 l-33 30 21 21 c31 31 237 168 254 169 9 1 32 -13 53 -30z m-3267 -50 c34 -28 -22 -89 -80 -89 -56 0 -32 -100 30 -129 28 -12 64 11 64 42 0 55 68 90 100 52 20 -24 3 -88 -35 -133 -42 -48 -89 -72 -144 -72 -81 0 -173 120 -157 205 8 42 61 105 109 129 32 16 90 14 113 -5z m3497 -117 c25 -22 21 -52 -14 -92 -44 -51 -89 -112 -89 -121 0 -4 19 -26 42 -48 38 -36 41 -42 32 -68 -16 -48 -53 -43 -116 17 -29 29 -63 59 -75 67 -36 24 -28 56 35 129 125 149 137 157 185 116z m-4048 -508 c39 -28 80 -56 93 -63 22 -12 29 -42 16 -76 -10 -26 -59 -45 -119 -45 -30 0 -55 -4 -55 -9 0 -5 14 -21 30 -34 34 -29 37 -52 14 -85 -24 -35 -58 -27 -126 29 -34 28 -78 61 -99 74 -43 28 -56 58 -39 91 19 34 62 48 125 40 67 -8 73 8 20 48 -42 32 -44 52 -10 89 30 31 24 34 150 -59z m4582 -94 c18 -10 44 -37 58 -58 21 -33 26 -49 23 -92 -4 -62 -24 -83 -58 -62 -22 14 -23 13 -34 -40 -12 -54 -97 -87 -151 -58 -14 8 -41 35 -58 60 -26 37 -32 55 -31 97 0 50 15 83 38 83 6 0 23 -11 37 -24 23 -21 26 -31 22 -69 -6 -47 7 -66 27 -42 10 12 9 26 -4 70 -16 49 -16 57 -2 87 16 34 59 67 86 68 8 0 29 -9 47 -20z m-4784 -254 c60 -8 113 -18 119 -24 21 -21 -6 -66 -55 -90 -53 -25 -67 -56 -49 -106 10 -25 9 -35 -6 -60 -27 -46 -53 -44 -95 6 -19 24 -63 72 -96 107 -68 71 -74 94 -41 149 18 29 24 32 67 32 27 -1 97 -7 156 -14z m4955 -18 c5 -7 31 -55 56 -105 50 -97 53 -126 14 -139 -26 -8 -53 19 -70 71 -13 40 -48 62 -48 31 0 -16 3 -23 32 -83 13 -25 14 -35 4 -48 -22 -31 -57 -14 -87 40 -15 28 -33 50 -41 50 -23 0 -20 -34 7 -81 16 -27 24 -52 20 -64 -7 -22 -37 -34 -62 -26 -17 6 -113 193 -113 219 0 7 17 21 38 32 20 10 71 38 112 61 65 36 91 47 121 53 4 0 11 -5 17 -11z m-5173 -268 c28 -12 75 -30 105 -40 68 -21 86 -49 63 -94 -9 -17 -24 -36 -33 -43 -11 -8 -16 -21 -13 -35 2 -13 -3 -40 -11 -60 -13 -29 -24 -39 -53 -47 -21 -6 -46 -11 -55 -11 -42 0 -24 -35 22 -42 13 -1 31 -14 39 -29 13 -24 13 -29 -8 -58 -12 -17 -30 -31 -39 -31 -9 0 -55 12 -102 26 -47 14 -94 27 -105 28 -35 3 -65 26 -64 49 1 36 34 156 47 169 7 7 12 18 12 24 0 25 32 44 71 44 47 0 79 -14 79 -35 0 -29 37 -37 95 -20 60 17 73 41 28 51 -16 3 -62 21 -103 40 -42 19 -81 34 -88 34 -36 0 -33 79 4 107 17 12 22 11 109 -27z m5348 -115 c18 -41 32 -93 35 -126 4 -53 3 -57 -29 -83 -30 -25 -38 -27 -82 -22 -48 7 -50 6 -84 -34 -44 -51 -76 -54 -92 -9 -18 52 -13 69 30 116 31 33 38 48 30 56 -9 9 -17 8 -31 -1 -25 -15 -72 -16 -88 0 -17 17 -15 63 4 79 23 19 235 98 257 96 13 -1 28 -25 50 -72z m87 -291 c6 -14 10 -34 10 -45 0 -21 -59 -64 -117 -84 -20 -7 -39 -17 -40 -22 -5 -13 65 -33 116 -33 50 0 81 -27 81 -70 0 -40 -15 -45 -108 -32 -230 32 -232 34 -232 113 0 41 4 49 33 70 17 13 50 33 72 44 22 11 59 35 83 52 54 41 89 43 102 7z m-5654 -165 c-8 -95 7 -105 33 -20 17 58 38 78 66 67 16 -6 17 -15 12 -81 -4 -48 -3 -76 4 -81 17 -10 28 8 45 77 9 35 21 69 26 75 10 14 43 8 57 -10 12 -14 -22 -231 -40 -252 -13 -16 -62 -19 -87 -5 -10 5 -52 14 -94 20 -42 6 -88 16 -103 23 -27 12 -27 14 -21 78 3 35 13 87 22 115 9 27 18 56 20 63 2 6 18 12 35 12 l32 0 -7 -81z m5722 -251 c3 -44 2 -46 -30 -56 -44 -14 -274 -26 -281 -16 -14 24 -16 71 -5 87 11 15 36 20 133 26 186 13 179 15 183 -41z m-5536 -83 c38 -105 13 -227 -54 -261 -24 -12 -49 -15 -106 -12 -69 5 -76 8 -110 42 -35 35 -37 40 -40 114 -3 66 -1 83 18 114 12 21 30 40 41 43 46 15 80 -66 43 -102 -9 -10 -14 -29 -12 -52 3 -34 5 -36 50 -45 63 -12 98 9 98 59 0 41 -16 46 -32 10 -14 -31 -53 -34 -68 -5 -12 22 -5 101 12 133 8 15 20 17 76 15 l66 -3 18 -50z m5490 -62 c78 -39 89 -216 16 -267 -38 -27 -56 -20 -64 21 -5 27 -2 45 10 66 23 41 20 66 -10 77 -90 34 -180 -28 -108 -74 21 -15 25 -23 22 -59 -3 -39 -5 -42 -34 -45 -87 -9 -131 121 -79 232 19 39 41 55 90 66 40 9 123 1 157 -17z m-5478 -279 c10 -27 7 -81 -6 -92 -12 -9 -133 -21 -251 -24 -53 -1 -67 9 -67 52 0 44 12 51 126 64 155 19 191 19 198 0z m5400 -73 c134 -14 133 -13 117 -148 -14 -122 -25 -143 -68 -127 -23 8 -27 15 -23 34 8 49 5 103 -7 107 -7 3 -15 -8 -18 -24 -13 -60 -31 -98 -49 -101 -30 -6 -41 16 -41 85 0 41 -4 68 -11 70 -14 5 -34 -48 -34 -87 0 -15 -9 -38 -19 -51 -19 -23 -21 -23 -48 -8 -15 9 -26 22 -25 30 2 8 8 55 14 104 15 130 19 138 71 131 23 -3 87 -10 141 -15z m-5390 -97 c9 -8 16 -32 16 -52 0 -30 -8 -43 -51 -83 -61 -56 -58 -72 11 -63 44 6 49 4 65 -20 28 -43 9 -73 -52 -81 -26 -4 -71 -14 -100 -22 -28 -8 -76 -13 -105 -11 l-53 3 -3 46 c-3 44 -1 49 43 86 25 23 45 48 45 57 0 15 -7 17 -55 11 -52 -7 -55 -6 -66 18 -13 29 -5 76 14 81 41 12 132 29 192 35 39 5 73 9 77 10 4 0 14 -6 22 -15z m5316 -630 c0 -16 -26 -19 -35 -4 -4 6 -4 18 -1 27 5 12 9 13 21 3 8 -7 15 -19 15 -26z m-4635 -1094 c0 -22 -29 -18 -33 3 -3 14 1 18 15 15 10 -2 18 -10 18 -18z m275 -255 c0 -8 -7 -15 -15 -15 -16 0 -20 12 -8 23 11 12 23 8 23 -8z m608 -287 c-6 -18 -28 -21 -28 -4 0 9 7 16 16 16 9 0 14 -5 12 -12z m1520 -160 c-2 -13 -10 -23 -18 -23 -8 0 -16 10 -18 23 -3 17 2 22 18 22 16 0 21 -5 18 -22z m-358 -23 c0 -8 -4 -17 -10 -20 -6 -4 -10 5 -10 20 0 15 4 24 10 20 6 -3 10 -12 10 -20z"></path><path d="M2773 6194 c-3 -9 0 -20 7 -24 20 -12 50 1 50 21 0 24 -48 26 -57 3z"></path><path d="M4330 6108 c-27 -44 -26 -83 2 -102 34 -24 56 -19 78 17 36 58 21 117 -30 117 -23 0 -35 -8 -50 -32z"></path><path d="M2420 6081 c0 -24 13 -33 34 -25 27 10 20 44 -9 44 -18 0 -25 -5 -25 -19z"></path><path d="M2075 5896 c-17 -25 -13 -45 17 -88 34 -50 98 -31 98 28 0 10 -10 33 -22 51 -28 41 -70 45 -93 9z"></path><path d="M2700 5800 c0 -13 20 -13 40 0 12 8 9 10 -12 10 -16 0 -28 -4 -28 -10z"></path><path d="M2240 5590 c0 -5 6 -10 14 -10 8 0 18 5 21 10 3 6 -3 10 -14 10 -12 0 -21 -4 -21 -10z"></path><path d="M3346 5551 c-10 -11 -31 -25 -47 -31 -29 -13 -44 -42 -37 -77 3 -14 15 -19 65 -23 72 -6 103 -28 103 -74 0 -37 -22 -72 -92 -148 -52 -57 -54 -58 -112 -59 -51 -2 -62 1 -78 21 -24 30 -23 45 13 139 27 71 29 85 19 115 -17 54 -43 71 -108 71 -69 -1 -127 -27 -205 -93 -31 -26 -67 -55 -81 -65 -22 -15 -24 -21 -14 -42 9 -20 6 -33 -17 -79 -15 -30 -38 -65 -51 -77 -28 -26 -31 -54 -7 -68 19 -10 15 -40 -21 -156 -43 -143 -46 -157 -31 -185 11 -21 12 -36 4 -66 -23 -86 -30 -113 -50 -199 -11 -49 -28 -111 -37 -138 -30 -86 29 -82 71 5 14 29 15 29 22 9 3 -11 13 -21 21 -21 20 0 107 45 122 63 7 8 28 18 46 21 18 3 45 19 60 35 16 16 38 32 50 35 23 6 66 63 66 88 0 9 22 32 48 52 26 19 54 47 62 63 34 67 50 84 71 72 23 -12 44 0 54 32 8 25 42 24 56 -2 21 -40 12 -214 -16 -314 -31 -111 -31 -115 0 -115 21 0 25 -5 24 -27 -1 -49 -40 -116 -74 -125 -17 -4 -34 -3 -39 2 -16 16 -45 11 -67 -11 -17 -17 -20 -29 -16 -61 3 -23 -1 -58 -10 -84 -13 -40 -19 -45 -53 -50 -55 -9 -63 -18 -69 -71 l-6 -48 -205 -5 -205 -5 1 -425 c0 -425 0 -425 26 -520 28 -104 106 -275 147 -324 15 -17 38 -49 53 -72 40 -63 190 -203 286 -268 48 -32 138 -83 200 -113 100 -49 128 -72 105 -86 -12 -7 -337 21 -448 38 -139 22 -357 81 -429 115 -74 35 -98 66 -107 139 -6 45 -14 62 -39 84 -26 23 -39 27 -93 27 l-62 0 -135 -133 c-137 -134 -262 -230 -351 -268 -53 -23 -65 -48 -24 -51 76 -5 190 -17 220 -23 11 -2 26 -14 33 -25 11 -18 11 -25 -2 -45 -9 -14 -16 -37 -16 -53 0 -16 -7 -51 -15 -78 -36 -119 -16 -106 175 119 80 94 110 99 110 20 0 -31 37 -76 103 -125 78 -58 158 -93 297 -129 41 -11 97 -27 124 -35 26 -8 62 -14 80 -14 17 0 67 -7 111 -16 59 -11 175 -17 445 -21 587 -9 858 21 1120 124 156 61 288 169 293 241 4 46 30 34 102 -50 102 -119 165 -182 172 -174 4 4 -1 39 -10 79 -26 112 -30 162 -14 175 7 6 69 17 137 24 71 8 125 18 127 24 2 6 -15 19 -39 29 -75 30 -211 127 -306 220 -51 49 -100 94 -108 98 -8 4 -14 13 -14 20 0 7 -15 24 -33 38 -26 21 -44 26 -94 28 -57 2 -74 -2 -110 -27 -7 -4 -18 -35 -24 -68 -16 -91 -17 -93 -74 -130 -136 -86 -545 -172 -832 -173 -78 -1 -93 2 -93 15 0 8 17 22 38 30 43 18 188 89 217 107 91 56 208 151 297 241 53 53 157 221 203 326 71 162 76 213 73 685 l-3 400 -225 5 c-124 3 -226 7 -226 8 -1 1 -4 21 -7 44 -3 25 -15 51 -31 66 -22 23 -28 24 -51 14 -37 -17 -42 -15 -53 17 -6 16 -26 47 -46 68 l-36 40 25 23 c22 21 32 22 139 22 113 -1 116 -1 116 21 0 13 -25 48 -58 84 -121 131 -138 155 -179 253 -11 25 -27 62 -36 83 -19 42 -22 93 -7 131 16 43 42 31 75 -36 23 -46 42 -69 77 -92 26 -17 47 -35 47 -40 1 -5 10 -29 22 -52 15 -31 29 -46 53 -54 18 -6 45 -24 60 -40 15 -17 36 -30 50 -30 13 0 29 -7 36 -15 24 -28 103 -65 140 -65 30 0 43 -6 58 -27 22 -30 60 -27 47 5 -4 9 -20 71 -36 137 -16 66 -38 152 -48 192 -15 61 -16 76 -5 102 14 33 6 70 -55 259 -21 64 -20 86 5 96 20 8 17 30 -6 51 -11 10 -20 22 -20 28 0 5 -13 25 -30 44 -34 38 -38 60 -13 78 20 15 12 29 -35 60 -21 13 -57 42 -82 65 -55 52 -101 76 -161 85 -54 8 -111 -12 -129 -45 -16 -29 -4 -122 21 -169 46 -87 -2 -151 -102 -135 -51 9 -60 21 -49 69 16 68 12 183 -7 215 -14 24 -15 34 -5 55 19 41 16 57 -9 50 -22 -7 -77 5 -137 31 -48 21 -115 18 -136 -5z m151 -1153 c4 -7 11 -47 15 -88 4 -41 10 -87 14 -103 l6 -27 -88 4 c-49 2 -90 5 -91 5 -2 1 -3 12 -3 26 0 17 15 40 44 69 25 24 48 56 52 72 7 32 22 54 35 54 4 0 11 -6 16 -12z m163 -164 c13 -34 -4 -66 -33 -62 -23 3 -35 43 -23 74 9 24 46 16 56 -12z m-370 -140 c0 -19 -5 -25 -17 -22 -22 4 -30 38 -12 49 19 11 29 2 29 -27z m33 -139 c35 -44 76 -47 109 -10 26 31 37 31 84 3 l37 -22 40 23 39 23 27 -26 c31 -30 80 -42 108 -28 26 14 46 0 41 -29 l-3 -24 -332 -3 c-329 -2 -332 -2 -343 19 -14 26 -14 26 35 33 61 10 70 14 93 46 13 17 26 30 30 30 4 0 20 -16 35 -35z m-432 -201 c14 -7 31 -20 38 -28 7 -9 35 -18 61 -22 65 -9 99 -33 129 -95 35 -71 62 -89 148 -96 70 -6 72 -6 101 -49 43 -60 72 -72 154 -65 63 6 69 9 121 59 50 47 60 52 101 52 71 0 92 13 141 90 48 75 97 109 157 110 15 0 29 4 32 9 3 5 24 18 46 30 51 27 170 30 194 5 19 -18 20 -70 3 -100 -20 -34 -81 -82 -139 -109 -68 -31 -134 -87 -142 -120 -15 -59 -45 -78 -223 -140 -135 -47 -165 -68 -194 -130 -25 -55 -24 -75 12 -163 17 -43 31 -89 31 -103 1 -14 -15 -50 -36 -80 -44 -66 -47 -108 -11 -200 37 -92 42 -142 19 -176 -14 -21 -19 -47 -19 -107 l0 -79 -45 -23 c-25 -13 -58 -24 -73 -24 -31 0 -147 66 -147 84 -6 167 0 347 14 385 27 73 22 106 -32 217 -15 30 -14 38 17 135 50 156 36 183 -142 264 -43 19 -85 35 -93 35 -38 0 -95 43 -134 100 -23 33 -59 73 -82 88 -22 15 -64 43 -93 62 -29 19 -71 47 -93 63 -43 28 -56 54 -50 103 3 28 6 29 63 34 75 7 132 1 166 -16z m1383 -380 c31 -52 44 -129 26 -154 -16 -24 -40 15 -40 66 0 24 -5 55 -11 71 -10 26 -11 27 -24 10 -7 -9 -15 -35 -19 -57 -8 -50 -39 -81 -75 -74 -24 5 -28 1 -49 -55 -13 -34 -28 -61 -32 -61 -19 0 -28 34 -17 64 17 50 76 124 100 128 14 2 24 12 27 28 6 29 60 92 75 87 5 -2 23 -26 39 -53z m-1374 -43 c0 -10 10 -25 23 -34 18 -12 20 -19 11 -34 -6 -10 -24 -22 -40 -28 -16 -5 -35 -14 -41 -18 -21 -13 -15 -64 15 -125 70 -143 123 -241 132 -247 6 -4 20 -25 31 -47 18 -35 24 -40 48 -35 36 7 49 -2 57 -41 6 -27 4 -32 -13 -32 -11 0 -41 -9 -67 -20 -41 -19 -45 -24 -40 -45 9 -34 -18 -33 -51 2 -25 28 -25 28 -44 8 -20 -20 -20 -20 0 -62 26 -57 57 -58 106 -3 42 46 100 83 108 69 9 -14 71 -11 84 5 15 18 5 81 -16 101 -8 8 -26 15 -40 15 -21 0 -24 2 -13 15 17 21 26 19 66 -12 21 -18 38 -42 45 -66 9 -35 8 -40 -21 -69 -18 -17 -56 -39 -86 -49 -30 -10 -72 -32 -94 -50 -34 -28 -45 -31 -84 -27 -62 7 -94 30 -102 74 -9 46 7 80 51 105 23 14 35 28 35 43 0 36 -39 142 -80 216 -20 37 -42 83 -49 101 -6 18 -18 40 -26 49 -8 9 -21 34 -28 56 -8 22 -26 57 -41 78 -44 65 -31 109 27 87 27 -11 88 7 102 29 11 17 35 11 35 -9z m1330 -164 c0 -26 -6 -44 -17 -52 -12 -9 -16 -24 -15 -50 2 -27 -4 -48 -22 -74 -14 -20 -39 -70 -56 -111 -17 -41 -43 -100 -57 -130 -52 -110 -81 -176 -99 -220 -20 -50 -53 -100 -66 -100 -17 0 10 112 43 186 11 23 19 48 19 57 0 9 4 26 9 39 5 13 20 57 32 98 13 41 27 81 33 88 5 8 9 45 9 82 -1 57 2 72 19 87 11 10 31 35 45 56 13 21 40 55 61 76 32 33 39 36 50 23 6 -9 12 -34 12 -55z m40 -1 c0 -8 -4 -18 -10 -21 -5 -3 -10 3 -10 14 0 12 5 21 10 21 6 0 10 -6 10 -14z"></path><path d="M1340 4679 c0 -11 5 -17 10 -14 6 3 10 13 10 21 0 8 -4 14 -10 14 -5 0 -10 -9 -10 -21z"></path><path d="M5027 5735 c-8 -19 13 -31 23 -14 9 14 4 29 -10 29 -4 0 -10 -7 -13 -15z"></path><path d="M5875 4990 c-7 -12 2 -30 16 -30 12 0 12 27 0 35 -5 3 -12 1 -16 -5z"></path><path d="M1020 4736 c0 -2 7 -9 15 -16 12 -10 15 -10 15 4 0 9 -7 16 -15 16 -8 0 -15 -2 -15 -4z"></path><path d="M754 4266 c-9 -24 4 -48 23 -44 12 2 18 12 18 28 0 29 -32 41 -41 16z"></path><path d="M6150 4357 c0 -8 9 -22 20 -32 18 -16 20 -16 26 -1 3 9 4 23 0 31 -7 19 -46 20 -46 2z"></path></g></svg>